<mxfile host="Electron" modified="2023-11-13T23:13:34.529Z" agent="Mozilla/5.0 (Windows NT 10.0; Win64; x64) AppleWebKit/537.36 (KHTML, like Gecko) draw.io/22.0.2 Chrome/114.0.5735.289 Electron/25.8.4 Safari/537.36" etag="1kDJuZD3OQU0TOljWgCL" version="22.0.2" type="device">
  <diagram name="Versão 1" id="69jUAUAMYxozdDih75KZ">
    <mxGraphModel dx="1008" dy="529" grid="1" gridSize="10" guides="1" tooltips="1" connect="1" arrows="0" fold="1" page="1" pageScale="1" pageWidth="827" pageHeight="1169" math="0" shadow="0">
      <root>
        <mxCell id="0" />
        <mxCell id="1" parent="0" />
        <mxCell id="rVl8f4sS4UJpUmV0ZUyS-40" style="edgeStyle=orthogonalEdgeStyle;rounded=0;orthogonalLoop=1;jettySize=auto;html=1;exitX=0.5;exitY=0.5;exitDx=0;exitDy=0;exitPerimeter=0;entryX=1;entryY=0.5;entryDx=0;entryDy=0;strokeColor=#66B2FF;" parent="1" source="aZ-7F40O5Zak4lBexpJ7-3" target="rVl8f4sS4UJpUmV0ZUyS-1" edge="1">
          <mxGeometry relative="1" as="geometry">
            <Array as="points">
              <mxPoint x="560" y="270" />
              <mxPoint x="560" y="460" />
            </Array>
          </mxGeometry>
        </mxCell>
        <mxCell id="rVl8f4sS4UJpUmV0ZUyS-41" style="edgeStyle=orthogonalEdgeStyle;rounded=0;orthogonalLoop=1;jettySize=auto;html=1;exitX=0.5;exitY=0.5;exitDx=0;exitDy=0;exitPerimeter=0;entryX=1;entryY=0.5;entryDx=0;entryDy=0;strokeColor=#66B2FF;" parent="1" source="aZ-7F40O5Zak4lBexpJ7-3" target="aZ-7F40O5Zak4lBexpJ7-4" edge="1">
          <mxGeometry relative="1" as="geometry" />
        </mxCell>
        <mxCell id="rVl8f4sS4UJpUmV0ZUyS-44" style="edgeStyle=orthogonalEdgeStyle;rounded=0;orthogonalLoop=1;jettySize=auto;html=1;exitX=0.5;exitY=0.5;exitDx=0;exitDy=0;exitPerimeter=0;entryX=1;entryY=0.5;entryDx=0;entryDy=0;strokeColor=#3399FF;" parent="1" source="aZ-7F40O5Zak4lBexpJ7-3" target="aZ-7F40O5Zak4lBexpJ7-5" edge="1">
          <mxGeometry relative="1" as="geometry" />
        </mxCell>
        <mxCell id="GbmYP3v7puICWPMJlutL-2" style="edgeStyle=orthogonalEdgeStyle;rounded=0;orthogonalLoop=1;jettySize=auto;html=1;exitX=0.5;exitY=0.5;exitDx=0;exitDy=0;exitPerimeter=0;entryX=1;entryY=0.5;entryDx=0;entryDy=0;strokeColor=#66B2FF;" parent="1" source="aZ-7F40O5Zak4lBexpJ7-3" target="rVl8f4sS4UJpUmV0ZUyS-16" edge="1">
          <mxGeometry relative="1" as="geometry" />
        </mxCell>
        <mxCell id="GbmYP3v7puICWPMJlutL-7" style="edgeStyle=orthogonalEdgeStyle;rounded=0;orthogonalLoop=1;jettySize=auto;html=1;exitX=0.5;exitY=0.5;exitDx=0;exitDy=0;exitPerimeter=0;entryX=1;entryY=0.25;entryDx=0;entryDy=0;strokeColor=#66B2FF;" parent="1" source="aZ-7F40O5Zak4lBexpJ7-3" target="rVl8f4sS4UJpUmV0ZUyS-32" edge="1">
          <mxGeometry relative="1" as="geometry" />
        </mxCell>
        <mxCell id="GbmYP3v7puICWPMJlutL-8" style="edgeStyle=orthogonalEdgeStyle;rounded=0;orthogonalLoop=1;jettySize=auto;html=1;exitX=0.5;exitY=0.5;exitDx=0;exitDy=0;exitPerimeter=0;entryX=1;entryY=0.25;entryDx=0;entryDy=0;strokeColor=#3399FF;" parent="1" source="aZ-7F40O5Zak4lBexpJ7-3" target="rVl8f4sS4UJpUmV0ZUyS-45" edge="1">
          <mxGeometry relative="1" as="geometry" />
        </mxCell>
        <mxCell id="GbmYP3v7puICWPMJlutL-9" style="edgeStyle=orthogonalEdgeStyle;rounded=0;orthogonalLoop=1;jettySize=auto;html=1;exitX=0.5;exitY=0.5;exitDx=0;exitDy=0;exitPerimeter=0;entryX=1;entryY=0.25;entryDx=0;entryDy=0;strokeColor=#3399FF;" parent="1" source="aZ-7F40O5Zak4lBexpJ7-3" target="rVl8f4sS4UJpUmV0ZUyS-34" edge="1">
          <mxGeometry relative="1" as="geometry" />
        </mxCell>
        <mxCell id="aZ-7F40O5Zak4lBexpJ7-3" value="Administrador" style="shape=umlActor;verticalLabelPosition=bottom;verticalAlign=top;html=1;outlineConnect=0;strokeColor=#66B2FF;" parent="1" vertex="1">
          <mxGeometry x="720" y="240" width="30" height="60" as="geometry" />
        </mxCell>
        <mxCell id="aZ-7F40O5Zak4lBexpJ7-4" value="vê feed de manchetes e acessa artigos" style="rounded=1;whiteSpace=wrap;html=1;" parent="1" vertex="1">
          <mxGeometry x="280" y="280" width="120" height="50" as="geometry" />
        </mxCell>
        <mxCell id="aZ-7F40O5Zak4lBexpJ7-5" value="Busca artigos" style="rounded=1;whiteSpace=wrap;html=1;" parent="1" vertex="1">
          <mxGeometry x="280" y="340" width="120" height="40" as="geometry" />
        </mxCell>
        <mxCell id="aZ-7F40O5Zak4lBexpJ7-6" value="&amp;nbsp;Realiza cadastro" style="rounded=1;whiteSpace=wrap;html=1;" parent="1" vertex="1">
          <mxGeometry x="280" y="390" width="120" height="40" as="geometry" />
        </mxCell>
        <mxCell id="aZ-7F40O5Zak4lBexpJ7-13" style="edgeStyle=orthogonalEdgeStyle;rounded=0;orthogonalLoop=1;jettySize=auto;html=1;entryX=0;entryY=0.5;entryDx=0;entryDy=0;strokeColor=#FFFF66;" parent="1" source="aZ-7F40O5Zak4lBexpJ7-10" target="aZ-7F40O5Zak4lBexpJ7-4" edge="1">
          <mxGeometry relative="1" as="geometry" />
        </mxCell>
        <mxCell id="rEDIBzHfa8EjjrVQKgvx-1" style="edgeStyle=orthogonalEdgeStyle;rounded=0;orthogonalLoop=1;jettySize=auto;html=1;entryX=0;entryY=0.5;entryDx=0;entryDy=0;strokeColor=#FFFF66;" parent="1" source="aZ-7F40O5Zak4lBexpJ7-10" target="aZ-7F40O5Zak4lBexpJ7-6" edge="1">
          <mxGeometry relative="1" as="geometry" />
        </mxCell>
        <mxCell id="rVl8f4sS4UJpUmV0ZUyS-5" style="edgeStyle=orthogonalEdgeStyle;rounded=0;orthogonalLoop=1;jettySize=auto;html=1;exitX=0.5;exitY=0.5;exitDx=0;exitDy=0;exitPerimeter=0;entryX=0;entryY=0.5;entryDx=0;entryDy=0;strokeColor=#FFFF66;" parent="1" source="aZ-7F40O5Zak4lBexpJ7-10" target="aZ-7F40O5Zak4lBexpJ7-5" edge="1">
          <mxGeometry relative="1" as="geometry" />
        </mxCell>
        <mxCell id="aZ-7F40O5Zak4lBexpJ7-10" value="Visitante" style="shape=umlActor;verticalLabelPosition=bottom;verticalAlign=top;html=1;outlineConnect=0;strokeColor=#FFFF00;" parent="1" vertex="1">
          <mxGeometry x="30" y="430" width="30" height="60" as="geometry" />
        </mxCell>
        <mxCell id="rVl8f4sS4UJpUmV0ZUyS-1" value="Realiza login" style="rounded=1;whiteSpace=wrap;html=1;" parent="1" vertex="1">
          <mxGeometry x="280" y="445" width="120" height="30" as="geometry" />
        </mxCell>
        <mxCell id="rVl8f4sS4UJpUmV0ZUyS-33" style="edgeStyle=orthogonalEdgeStyle;rounded=0;orthogonalLoop=1;jettySize=auto;html=1;exitX=0.5;exitY=0.5;exitDx=0;exitDy=0;exitPerimeter=0;entryX=1;entryY=0.5;entryDx=0;entryDy=0;strokeColor=#FF3333;" parent="1" target="rVl8f4sS4UJpUmV0ZUyS-32" edge="1">
          <mxGeometry relative="1" as="geometry">
            <mxPoint x="755" y="660" as="sourcePoint" />
            <Array as="points">
              <mxPoint x="755" y="661" />
              <mxPoint x="580" y="661" />
              <mxPoint x="580" y="585" />
            </Array>
          </mxGeometry>
        </mxCell>
        <mxCell id="RELgvwY0mAhYb-bZnH12-7" style="edgeStyle=orthogonalEdgeStyle;rounded=0;orthogonalLoop=1;jettySize=auto;html=1;exitX=0.5;exitY=0.5;exitDx=0;exitDy=0;exitPerimeter=0;entryX=1;entryY=0.5;entryDx=0;entryDy=0;strokeColor=#FF3333;" parent="1" target="rVl8f4sS4UJpUmV0ZUyS-34" edge="1">
          <mxGeometry relative="1" as="geometry">
            <mxPoint x="755" y="660" as="sourcePoint" />
            <Array as="points">
              <mxPoint x="755" y="661" />
              <mxPoint x="580" y="661" />
              <mxPoint x="580" y="695" />
            </Array>
          </mxGeometry>
        </mxCell>
        <mxCell id="GbmYP3v7puICWPMJlutL-4" style="edgeStyle=orthogonalEdgeStyle;rounded=0;orthogonalLoop=1;jettySize=auto;html=1;entryX=1;entryY=0.75;entryDx=0;entryDy=0;strokeColor=#FF3333;" parent="1" target="aZ-7F40O5Zak4lBexpJ7-4" edge="1">
          <mxGeometry relative="1" as="geometry">
            <mxPoint x="750" y="660" as="sourcePoint" />
            <Array as="points">
              <mxPoint x="755" y="660" />
              <mxPoint x="680" y="660" />
              <mxPoint x="680" y="318" />
            </Array>
          </mxGeometry>
        </mxCell>
        <mxCell id="GbmYP3v7puICWPMJlutL-10" style="edgeStyle=orthogonalEdgeStyle;rounded=0;orthogonalLoop=1;jettySize=auto;html=1;entryX=1;entryY=0.25;entryDx=0;entryDy=0;strokeColor=#FF3333;" parent="1" target="aZ-7F40O5Zak4lBexpJ7-5" edge="1">
          <mxGeometry relative="1" as="geometry">
            <mxPoint x="750" y="660" as="sourcePoint" />
            <Array as="points">
              <mxPoint x="748" y="660" />
              <mxPoint x="640" y="660" />
              <mxPoint x="640" y="350" />
            </Array>
          </mxGeometry>
        </mxCell>
        <mxCell id="GbmYP3v7puICWPMJlutL-11" style="edgeStyle=orthogonalEdgeStyle;rounded=0;orthogonalLoop=1;jettySize=auto;html=1;entryX=1;entryY=0.75;entryDx=0;entryDy=0;strokeColor=#FF3333;" parent="1" target="rVl8f4sS4UJpUmV0ZUyS-1" edge="1">
          <mxGeometry relative="1" as="geometry">
            <mxPoint x="748" y="660" as="sourcePoint" />
            <Array as="points">
              <mxPoint x="748" y="660" />
              <mxPoint x="600" y="660" />
              <mxPoint x="600" y="468" />
            </Array>
          </mxGeometry>
        </mxCell>
        <mxCell id="GbmYP3v7puICWPMJlutL-12" style="edgeStyle=orthogonalEdgeStyle;rounded=0;orthogonalLoop=1;jettySize=auto;html=1;entryX=1;entryY=0.75;entryDx=0;entryDy=0;strokeColor=#FF3333;" parent="1" target="rVl8f4sS4UJpUmV0ZUyS-16" edge="1">
          <mxGeometry relative="1" as="geometry">
            <mxPoint x="410" y="530" as="targetPoint" />
            <mxPoint x="740" y="660" as="sourcePoint" />
            <Array as="points">
              <mxPoint x="580" y="660" />
              <mxPoint x="580" y="535" />
            </Array>
          </mxGeometry>
        </mxCell>
        <mxCell id="GbmYP3v7puICWPMJlutL-14" style="edgeStyle=orthogonalEdgeStyle;rounded=0;orthogonalLoop=1;jettySize=auto;html=1;exitX=0.5;exitY=0.5;exitDx=0;exitDy=0;exitPerimeter=0;entryX=1;entryY=0.5;entryDx=0;entryDy=0;strokeColor=#FF3333;" parent="1" target="rVl8f4sS4UJpUmV0ZUyS-45" edge="1">
          <mxGeometry relative="1" as="geometry">
            <mxPoint x="755" y="660" as="sourcePoint" />
            <Array as="points">
              <mxPoint x="755" y="661" />
              <mxPoint x="580" y="661" />
              <mxPoint x="580" y="640" />
            </Array>
          </mxGeometry>
        </mxCell>
        <mxCell id="rVl8f4sS4UJpUmV0ZUyS-16" value="Tem acesso a funções relacionadas à saude" style="rounded=1;whiteSpace=wrap;html=1;" parent="1" vertex="1">
          <mxGeometry x="280" y="490" width="120" height="60" as="geometry" />
        </mxCell>
        <mxCell id="rVl8f4sS4UJpUmV0ZUyS-31" style="edgeStyle=orthogonalEdgeStyle;rounded=0;orthogonalLoop=1;jettySize=auto;html=1;exitX=0.5;exitY=1;exitDx=0;exitDy=0;" parent="1" edge="1">
          <mxGeometry relative="1" as="geometry">
            <mxPoint x="340" y="555" as="sourcePoint" />
            <mxPoint x="340" y="555" as="targetPoint" />
          </mxGeometry>
        </mxCell>
        <mxCell id="rVl8f4sS4UJpUmV0ZUyS-32" value="Interage às postagens (reações)" style="rounded=1;whiteSpace=wrap;html=1;" parent="1" vertex="1">
          <mxGeometry x="280" y="565" width="120" height="40" as="geometry" />
        </mxCell>
        <mxCell id="rVl8f4sS4UJpUmV0ZUyS-34" value="&amp;nbsp;Salvar artigos para ler mais tarde" style="rounded=1;whiteSpace=wrap;html=1;" parent="1" vertex="1">
          <mxGeometry x="280" y="675" width="120" height="40" as="geometry" />
        </mxCell>
        <mxCell id="rVl8f4sS4UJpUmV0ZUyS-45" value="Posta, editar e apagar postagens" style="rounded=1;whiteSpace=wrap;html=1;" parent="1" vertex="1">
          <mxGeometry x="280" y="615" width="120" height="50" as="geometry" />
        </mxCell>
        <mxCell id="GbmYP3v7puICWPMJlutL-18" value="Usuario" style="shape=umlActor;verticalLabelPosition=bottom;verticalAlign=top;html=1;outlineConnect=0;strokeColor=#FF3333;" parent="1" vertex="1">
          <mxGeometry x="740" y="630" width="30" height="60" as="geometry" />
        </mxCell>
      </root>
    </mxGraphModel>
  </diagram>
</mxfile>
